<svg width="100" height="100" viewBox="0 0 100 100" fill="none" xmlns="http://www.w3.org/2000/svg">
<rect width="100" height="100" fill="white"/>
<path d="M80.168 52.0799C80.168 52.0379 80.168 52.0379 80.168 52.0379C80.9232 50.9471 83.1887 47.1294 80.0002 42.7243C79.8324 42.3048 79.4968 41.9272 79.0353 41.5915C76.7698 39.9554 71.1061 39.9134 62.212 41.4237L63.6384 32.0262V31.7745C63.4706 30.0124 62.2959 21.0763 56.0868 20.1114C53.7374 19.7758 51.8914 20.1953 50.7167 21.412C49.7518 22.4189 49.2903 23.8453 49.3742 25.4815C49.3742 25.4815 49.3742 25.5654 49.3742 25.6493C49.5421 26.9498 50.2972 33.5785 46.3956 37.6899C42.5358 41.7594 39.1796 45.7449 37.879 47.3392H37.2917C36.8721 47.3392 36.4526 47.507 36.1589 47.7587C35.2779 47.0874 34.1871 46.7099 33.0124 46.7099H24.2861C21.3494 46.7099 19 49.1012 19 51.996V70.4135C19 73.3502 21.3494 75.6996 24.2861 75.6996H33.0544C34.313 75.6996 35.4457 75.2381 36.3687 74.5249C36.6624 74.7347 36.998 74.8186 37.3336 74.8186H38.9698L39.1796 74.7347C40.1865 74.5249 41.4451 74.7767 42.7037 75.406C43.2071 75.6577 44.7174 76.4128 57.8488 76.4128C62.5896 76.4128 67.3722 76.3289 70.2251 76.245C71.4837 76.2031 72.3647 76.2031 72.7842 76.2031C73.4135 76.2031 75.9727 75.7416 77.483 73.602C78.6577 71.9658 78.9514 69.7842 78.3221 67.1411V67.0992C78.9514 66.1343 80.7134 62.8619 79.0772 59.3798C81.0071 57.1982 81.3847 54.5132 80.168 52.0799ZM24.2861 73.9795C22.3143 73.9795 20.6781 72.3853 20.6781 70.3716V51.996C20.6781 50.0242 22.2724 48.388 24.2861 48.388H33.0544C34.1032 48.388 35.0262 48.8075 35.6555 49.5207V72.8468C34.9842 73.5181 34.0613 73.9795 33.0544 73.9795H24.2861ZM78.6577 52.7511V52.7931C79.9163 55.2683 78.6577 57.3241 77.8186 58.3309C77.3571 58.8763 77.2732 59.5476 77.5669 60.1349C78.8675 62.8199 77.3991 65.463 76.9376 66.2182C76.6859 66.5958 76.602 67.0992 76.7278 67.5607C77.2313 69.7423 77.0215 71.3784 76.1405 72.637C74.9238 74.3571 72.7842 74.5249 72.7842 74.5249C72.3647 74.5249 71.4837 74.5249 70.1831 74.5669C67.3303 74.6088 62.5476 74.7347 57.8488 74.7347C46.018 74.7347 43.8364 74.1054 43.4588 73.8956C42.2422 73.3083 40.9836 72.9727 39.8928 72.9727C39.5572 72.9727 39.2215 73.0146 38.9279 73.0566L38.7181 73.0985H37.5853C38.0888 72.3014 38.3405 71.3365 38.3405 70.3296V51.996C38.3405 50.8632 38.0049 49.8564 37.4175 49.0173H37.921C38.4244 49.0173 38.9279 48.7656 39.1796 48.388C40.4382 46.8777 43.7525 42.8921 47.6122 38.8226C48.703 37.6899 52.1432 33.3267 51.0104 25.3556V25.3136C50.9685 24.6424 51.0104 23.4257 51.8495 22.5447C52.6466 21.7476 53.9891 21.4959 55.7931 21.7476C57.9327 22.0832 59.6109 23.7614 60.7436 26.7401C61.5827 28.8797 61.8344 30.9773 61.9183 31.9003L60.4919 41.1301C60.408 41.6335 60.5758 42.1789 60.9953 42.5565C61.3729 42.9341 61.9183 43.1438 62.4637 43.0599C73.5394 41.172 76.9796 42.1369 78.0284 42.9341C78.364 43.1438 78.406 43.3116 78.4479 43.3536L78.4899 43.4794L78.5738 43.6053C81.1329 47.0455 79.5807 49.9403 78.7836 51.073C78.4899 51.5764 78.406 52.2057 78.6577 52.7511Z" fill="#302826"/>
</svg>
