<svg width="100" height="100" viewBox="0 0 100 100" fill="none" xmlns="http://www.w3.org/2000/svg">
<rect width="100" height="100" fill="white"/>
<path d="M79.5686 30.1899V31.6182H82.465V71.5717H18.4283V31.6182H21.4834V30.1899H17V73H83.8536V30.1899H79.5686Z" fill="#302826"/>
<path d="M51.2005 68.9928C51.2005 69.6276 50.407 69.945 49.9705 69.4689C49.9309 69.4292 44.773 64.5094 22.3165 69.6672C21.8801 69.7863 21.4437 69.4292 21.4437 68.9928V29.3567C21.4437 29.0393 21.6817 28.7615 21.9991 28.6822C22.0785 28.6822 28.1489 27.1745 34.6954 26.4207C43.7018 25.3891 49.177 26.262 51.0418 28.9599L51.1608 29.1583V68.9928H51.2005ZM22.9117 30.4676V67.2073C22.9117 67.6438 23.3481 68.0009 23.7845 67.8818C38.5836 64.7078 45.6856 65.9377 48.8596 67.2073C49.3357 67.4057 49.8118 67.0486 49.8118 66.5329V29.8725C49.8118 29.6741 49.7325 29.5154 49.6135 29.3567C45.8839 25.6272 30.5294 28.1664 23.4671 29.7931C23.1101 29.8725 22.9117 30.1502 22.9117 30.4676Z" fill="#302826"/>
<path d="M49.8515 29.1583L49.9705 28.9599C51.8353 26.262 57.3502 25.3891 66.317 26.4207C72.8635 27.1745 78.9735 28.6425 79.0132 28.6822C79.3306 28.7615 79.5686 29.0393 79.5686 29.3567V68.9928C79.5686 69.4292 79.1322 69.7863 78.6958 69.6672C56.279 64.5094 51.1211 69.4292 51.0418 69.4689C50.6054 69.945 49.8118 69.6276 49.8118 68.9928V29.1583H49.8515ZM77.6245 29.7931C70.6019 28.1664 55.2077 25.6272 51.4782 29.3567C51.3592 29.4757 51.2798 29.6741 51.2798 29.8725V66.6122C51.2798 67.128 51.7956 67.4454 52.2321 67.2867C55.3664 66.0567 62.5081 64.7871 77.3071 67.9612C77.7436 68.0405 78.18 67.7231 78.18 67.2867V30.4676C78.1403 30.1502 77.942 29.8725 77.6245 29.7931Z" fill="#302826"/>
<path d="M25.1335 35.2287C25.0145 34.6732 25.3716 34.1574 25.927 34.0781C27.6331 33.8003 31.4023 33.1655 35.3302 32.7688C42.5512 32.0149 45.7649 32.4117 47.3123 33.0068C47.9471 33.2449 48.1058 34.1178 47.59 34.5939C47.3123 34.8716 46.9155 34.9113 46.5584 34.7922C44.3763 33.9194 36.7982 34.1178 26.2841 35.9825C25.7287 36.1015 25.2526 35.7445 25.1335 35.2287Z" fill="#302826"/>
<path d="M25.1335 41.061C25.0145 40.5055 25.3716 39.9898 25.927 39.9104C27.6331 39.6327 31.4023 38.9979 35.3302 38.6011C42.5512 37.8473 45.7649 38.244 47.3123 38.8392C47.9471 39.0772 48.1058 39.9501 47.59 40.4262C47.3123 40.7039 46.9155 40.7436 46.5584 40.6246C44.3763 39.7517 36.7982 39.9501 26.2841 41.8148C25.7287 41.8942 25.2526 41.5768 25.1335 41.061Z" fill="#302826"/>
<path d="M25.1335 46.7743C25.0145 46.2189 25.3716 45.7031 25.927 45.6237C27.6331 45.346 31.4023 44.7112 35.3302 44.3144C42.5512 43.5606 45.7649 43.9573 47.3123 44.5525C47.9471 44.7905 48.1058 45.6634 47.59 46.1395C47.3123 46.4172 46.9155 46.4569 46.5584 46.3379C44.3763 45.465 36.7982 45.6634 26.2841 47.5282C25.7287 47.6472 25.2526 47.2901 25.1335 46.7743Z" fill="#302826"/>
<path d="M25.1335 52.5273C25.0145 51.9719 25.3716 51.4561 25.927 51.3767C27.6331 51.099 31.4023 50.4642 35.3302 50.0674C42.5512 49.3136 45.7649 49.7103 47.3123 50.3055C47.9471 50.5435 48.1058 51.4164 47.59 51.8925C47.3123 52.1702 46.9155 52.2099 46.5584 52.0909C44.3763 51.218 36.7982 51.4164 26.2841 53.2812C25.7287 53.4002 25.2526 53.0431 25.1335 52.5273Z" fill="#302826"/>
<path d="M25.1335 58.0026C25.0145 57.4471 25.3716 56.9313 25.927 56.852C27.6331 56.5742 31.4023 55.9394 35.3302 55.5427C42.5512 54.7888 45.7649 55.1856 47.3123 55.7807C47.9471 56.0188 48.1058 56.8916 47.59 57.3678C47.3123 57.6455 46.9155 57.6852 46.5584 57.5661C44.3763 56.6933 36.7982 56.8916 26.2841 58.7564C25.7287 58.8754 25.2526 58.5184 25.1335 58.0026Z" fill="#302826"/>
<path d="M76.0772 35.2287C76.1962 34.6732 75.8391 34.1574 75.2837 34.0781C73.5776 33.8003 69.8084 33.1655 65.8805 32.7688C58.6595 32.0149 55.4458 32.4117 53.8985 33.0068C53.2636 33.2449 53.1049 34.1178 53.6207 34.5939C53.8985 34.8716 54.2952 34.9113 54.6523 34.7922C56.8344 33.9194 64.4125 34.1178 74.9266 35.9825C75.4821 36.1015 75.9978 35.7445 76.0772 35.2287Z" fill="#302826"/>
<path d="M76.0772 41.061C76.1962 40.5055 75.8391 39.9898 75.2837 39.9104C73.5776 39.6327 69.8084 38.9979 65.8805 38.6011C58.6595 37.8473 55.4855 38.244 53.9381 38.8392C53.3033 39.0772 53.1446 39.9501 53.6604 40.4262C53.9381 40.7039 54.3349 40.7436 54.692 40.6246C56.8741 39.7517 64.4522 39.9501 74.9663 41.8148C75.4821 41.8942 75.9978 41.5768 76.0772 41.061Z" fill="#302826"/>
<path d="M76.0772 46.7743C76.1962 46.2189 75.8391 45.7031 75.2837 45.6237C73.5776 45.346 69.8084 44.7112 65.8805 44.3144C58.6595 43.5606 55.4458 43.9573 53.8985 44.5525C53.2636 44.7905 53.1049 45.6634 53.6207 46.1395C53.8985 46.4172 54.2952 46.4569 54.6523 46.3379C56.8344 45.465 64.4125 45.6634 74.9266 47.5282C75.4821 47.6472 75.9978 47.2901 76.0772 46.7743Z" fill="#302826"/>
<path d="M76.0772 52.5273C76.1962 51.9719 75.8391 51.4561 75.2837 51.3767C73.5776 51.099 69.8084 50.4642 65.8805 50.0674C58.6595 49.3136 55.4458 49.7103 53.8985 50.3055C53.2636 50.5435 53.1049 51.4164 53.6207 51.8925C53.8985 52.1702 54.2952 52.2099 54.6523 52.0909C56.8344 51.218 64.4125 51.4164 74.9266 53.2812C75.4821 53.4002 75.9978 53.0431 76.0772 52.5273Z" fill="#302826"/>
<path d="M76.0772 58.0026C76.1962 57.4471 75.8391 56.9313 75.2837 56.852C73.5776 56.5742 69.8084 55.9394 65.8805 55.5427C58.6595 54.7888 55.4458 55.1856 53.8985 55.7807C53.2636 56.0188 53.1049 56.8916 53.6207 57.3678C53.8985 57.6455 54.2952 57.6852 54.6523 57.5661C56.8344 56.6933 64.4125 56.8916 74.9266 58.7564C75.4821 58.8754 75.9978 58.5184 76.0772 58.0026Z" fill="#302826"/>
</svg>
