<svg width="100" height="100" viewBox="0 0 100 100" fill="none" xmlns="http://www.w3.org/2000/svg">
<rect width="100" height="100" fill="white"/>
<path d="M56.0632 48.2202C55.6094 48.0964 55.3206 47.6427 55.4444 47.1889C57.7132 40.2588 65.8396 40.3413 68.5209 40.5888C69.0159 40.63 69.3459 41.0838 69.2634 41.5375C69.1809 41.95 68.8096 42.2388 68.3971 42.2388C67.4071 42.1563 65.5096 42.0738 63.5295 42.4451C60.147 43.1463 57.9607 44.8789 57.0119 47.6839C56.8882 48.0964 56.4757 48.3439 56.0632 48.2202Z" fill="#302826"/>
<path d="M76.1523 81.3033C63.4883 81.3033 57.1769 70.4543 55.4444 66.8243C55.2794 66.4942 54.9494 66.3292 54.5781 66.3705C44.3892 68.0205 31.3952 68.6393 24.6301 63.3179C21.2062 60.6366 21 57.6253 21 57.5016V57.4603V57.4191C21.1238 43.3938 25.3726 34.8549 25.5376 34.4836C25.7026 34.1536 29.8277 25.0785 33.994 21.5721C38.1603 18.0246 49.298 19.1384 50.2881 19.2621H50.3293C51.2368 19.3034 56.8057 19.6334 57.9607 22.6447C58.3732 23.7584 58.4145 24.7485 58.002 25.5735C57.4657 26.646 56.4757 27.0172 56.3519 27.0585L56.2282 27.0998L51.4431 27.8423C50.9893 27.9248 50.7006 28.296 50.7418 28.7498C50.8656 29.5748 50.6593 30.6061 49.8343 31.6786C48.4318 33.5349 43.0692 34.2361 39.7691 34.4836C39.2328 34.5249 38.9028 35.0612 39.0678 35.5562C39.8929 38.155 39.8516 41.125 39.4803 43.8888C39.3978 44.5076 40.0166 45.0438 40.6354 44.7551C42.4504 43.9301 44.678 43.4763 47.2768 43.4763H47.318C51.3193 43.4763 54.3306 44.6313 56.2694 46.8589C58.3732 49.2927 58.5795 52.3452 58.5382 53.8303C58.5382 54.3253 58.0845 54.6965 57.5894 54.614C57.1769 54.5728 56.8882 54.2015 56.8882 53.789C56.9294 52.5515 56.7644 49.9114 55.0319 47.9314C53.4231 46.0751 50.8243 45.1263 47.318 45.1263C47.318 45.1263 47.318 45.1263 47.2768 45.1263C43.4817 45.1263 40.6766 46.0751 38.8203 48.0139C38.7791 48.0552 38.6966 48.1376 38.6553 48.1789C38.5728 48.2614 38.5316 48.3852 38.4903 48.5089C37.6653 51.479 36.6753 53.624 36.5928 53.8303C36.2215 54.614 35.0665 54.3665 35.0253 53.5415C35.0253 53.4177 34.9015 50.4064 36.9641 47.7251C37.0466 47.6426 37.0878 47.5601 37.0878 47.4364C38.1603 43.3526 38.9028 37.99 36.7578 34.1949C36.469 33.6586 36.8403 32.9986 37.459 32.9574C41.4604 32.8336 47.6067 32.0086 48.5968 30.6886C49.7518 29.121 48.8855 28.131 48.6793 27.966C48.1843 27.5123 48.4318 26.646 49.133 26.5635L55.8156 25.5322C55.9394 25.5322 56.0219 25.491 56.1457 25.4085C56.3107 25.326 56.4757 25.1197 56.5994 24.8722C56.7644 24.4597 56.7644 23.9234 56.4757 23.2634C55.8157 21.5309 51.6493 20.9946 50.2468 20.9534H50.1643C50.0406 20.9534 38.8203 19.6746 35.0665 22.8922C31.1889 26.1922 27.0639 35.1849 27.0226 35.2674C26.9814 35.3912 22.7738 43.8063 22.65 57.3778V57.5016C22.7325 57.9553 23.145 60.1004 25.7438 62.0804C29.3739 64.9267 37.5416 67.6493 55.5682 64.5555C55.9394 64.473 56.3107 64.6792 56.4344 65.0505C56.4757 65.0917 58.0432 69.2168 61.5908 73.0531C66.1283 77.8795 71.5734 80.107 77.8848 79.5707C78.3386 79.5295 78.7511 79.8595 78.7923 80.3133C78.8336 80.767 78.5036 81.1795 78.0498 81.2208C77.3898 81.262 76.7711 81.3033 76.1523 81.3033Z" fill="#302826"/>
</svg>
