<svg width="100" height="100" viewBox="0 0 100 100" fill="none" xmlns="http://www.w3.org/2000/svg">
<rect width="100" height="100" fill="white"/>
<path d="M86.4265 52.7625H78.1496C77.5267 52.7625 76.9037 52.4955 76.4587 52.0505C76.0137 51.6055 75.7467 50.9825 75.7467 50.3595C75.7467 49.0246 76.8147 47.9566 78.1496 47.9566H86.4265C87.7615 47.9566 88.8295 49.0246 88.8295 50.3595C88.8295 51.6945 87.7615 52.7625 86.4265 52.7625ZM78.1496 49.7366C77.7937 49.7366 77.5266 50.0035 77.5266 50.3595C77.5266 50.5375 77.5712 50.671 77.7047 50.8045C77.7937 50.8935 77.9716 50.9825 78.1496 50.9825H86.4265C86.7825 50.9825 87.0495 50.7155 87.0495 50.3595C87.0495 50.0035 86.7825 49.7366 86.4265 49.7366H78.1496Z" fill="#302826"/>
<path d="M77.9716 47.4671C77.3486 47.4671 76.7257 47.2446 76.2807 46.7996C75.7912 46.3546 75.5242 45.7316 75.5242 45.1086C75.5242 44.4411 75.7912 43.8181 76.2807 43.3731L82.5996 37.0542C83.5341 36.1197 85.0915 36.1197 85.9815 37.0542C86.916 37.9887 86.916 39.5462 85.9815 40.4362L79.6181 46.7996C79.2176 47.2446 78.5946 47.4671 77.9716 47.4671ZM84.3351 38.0777C84.1571 38.0777 84.0236 38.1222 83.8901 38.2557L77.5266 44.6191C77.3931 44.7526 77.3041 44.8861 77.3041 45.0641C77.3041 45.2421 77.3486 45.3756 77.4821 45.4646L77.5266 45.5091C77.7491 45.7316 78.1941 45.7316 78.4166 45.5091L84.7801 39.1457C85.0025 38.9232 85.0025 38.4782 84.7801 38.2557C84.6466 38.1667 84.5131 38.0777 84.3351 38.0777Z" fill="#302826"/>
<path d="M84.3351 64.3768C83.6676 64.3768 83.0891 64.1098 82.6441 63.6649L76.2807 57.3014C75.3462 56.3669 75.3462 54.8095 76.2807 53.9195C77.2151 52.985 78.7726 52.985 79.6626 53.9195L86.026 60.2829C86.9605 61.2174 86.9605 62.7749 86.026 63.6649C85.581 64.1098 84.958 64.3768 84.3351 64.3768ZM77.9716 54.9875C77.7936 54.9875 77.6601 55.032 77.5266 55.1655C77.3041 55.388 77.3041 55.833 77.5266 56.0555L83.8901 62.4189C84.1126 62.6414 84.5576 62.6414 84.78 62.4189C84.9135 62.2854 84.958 62.1519 84.958 61.9739C84.958 61.7959 84.9135 61.6624 84.78 61.5289L78.4166 55.1655C78.2831 55.0765 78.1496 54.9875 77.9716 54.9875Z" fill="#302826"/>
<path d="M14.9604 62.7749C12.78 62.7749 11 60.9949 11 58.8144V41.8156C11 39.6352 12.78 37.8552 14.9604 37.8552C17.1409 37.8552 18.9209 39.6352 18.9209 41.8156V58.8144C18.9209 61.0394 17.1409 62.7749 14.9604 62.7749ZM14.9604 39.6797C13.759 39.6797 12.78 40.6587 12.78 41.8601V58.8589C12.78 60.0604 13.759 61.0394 14.9604 61.0394C16.1619 61.0394 17.1409 60.0604 17.1409 58.8589V41.8156C17.1409 40.6587 16.1619 39.6797 14.9604 39.6797Z" fill="#302826"/>
<path d="M69.6502 68.9603L18.8319 56.901C18.3424 56.812 18.0754 56.3225 18.1644 55.833V55.7885C18.2534 55.299 18.7429 55.032 19.2324 55.121L67.8703 66.7353C68.4043 66.8688 68.9382 66.4683 68.9382 65.8898V35.0962C68.9382 34.5177 68.4043 34.1172 67.8703 34.2507L19.2324 45.4646C18.7429 45.5536 18.2979 45.2866 18.2089 44.7971V44.7526C18.1199 44.2631 18.3869 43.8181 18.8764 43.7291L69.6502 32.0258C70.1842 31.8923 70.7182 32.2928 70.7182 32.8713V68.1148C70.7182 68.6933 70.1842 69.0938 69.6502 68.9603Z" fill="#302826"/>
<path d="M44.6861 68.9603L29.6008 64.5549C29.2448 64.4659 28.9778 64.1099 28.9778 63.7094V59.4819C28.9778 58.9924 29.3783 58.5919 29.8678 58.5919H29.9122C30.4017 58.5919 30.8022 58.9924 30.8022 59.4819V62.3744C30.8022 62.7749 31.0692 63.0864 31.4252 63.2199L42.9506 66.6018C43.5291 66.7798 44.0631 66.3348 44.0631 65.7563V63.0419C44.0631 62.5524 44.4636 62.1519 44.9531 62.1519H44.9976C45.4871 62.1519 45.8876 62.5524 45.8876 63.0419V68.1148C45.7986 68.6933 45.2201 69.1383 44.6861 68.9603Z" fill="#302826"/>
</svg>
