<svg width="263" height="263" viewBox="0 0 263 263" fill="none" xmlns="http://www.w3.org/2000/svg">
<path d="M131.487 24.9766L152.336 0L164.425 30.1956L191.931 12.8611L194.115 45.32L225.642 37.3584L217.68 68.8854L250.112 71.0422L232.804 98.5751L263 110.664L237.997 131.487L263 152.336L232.804 164.425L250.112 191.931L217.68 194.115L225.642 225.642L194.115 217.68L191.931 250.112L164.425 232.804L152.336 263L131.487 237.997L110.664 263L98.5751 232.804L71.0422 250.112L68.8854 217.68L37.3584 225.642L45.32 194.115L12.8611 191.931L30.1956 164.425L0 152.336L24.9766 131.487L0 110.664L30.1956 98.5751L12.8611 71.0422L45.32 68.8854L37.3584 37.3584L68.8854 45.32L71.0422 12.8611L98.5751 30.1956L110.664 0L131.487 24.9766Z" fill="#D39F4C"/>
<path d="M118.101 180.171H105.881V99.351L81.4111 108.344V97.3363L116.201 84.2848H118.101V180.171Z" fill="white"/>
<path d="M61.8822 101.745H54.164C54.2225 104.344 54.8365 106.358 56.0643 107.76C57.2922 109.161 58.9879 109.862 61.1805 109.862C62.73 109.862 64.1917 109.629 65.5658 109.191L65.9751 112.432C64.3672 112.84 62.7592 113.045 61.1513 113.045C57.8185 113.045 55.2165 112.052 53.287 110.096C51.3867 108.14 50.3927 105.366 50.305 101.774H46.7383V99.2925H50.305V96.5479H46.7383V94.0369H50.305C50.4512 90.5331 51.4452 87.8177 53.3747 85.8906C55.275 83.9635 57.8769 83 61.1221 83C62.5546 83 64.1625 83.2044 65.9751 83.6132L65.5658 86.8541C64.104 86.387 62.6423 86.1534 61.1513 86.1534C58.9586 86.1534 57.263 86.8249 56.0643 88.1972C54.8949 89.5696 54.2517 91.4966 54.164 94.0369H61.8529V96.5479H54.1348V99.2925H61.8529V101.745H61.8822Z" fill="white"/>
<path d="M136.734 179.295H134.454L143.137 156.754H145.388L136.734 179.295Z" fill="white"/>
<path d="M150.738 162.098L150.796 163.82C151.937 162.477 153.457 161.835 155.386 161.835C157.55 161.835 159.011 162.652 159.801 164.317C160.327 163.587 160.97 162.974 161.818 162.506C162.637 162.039 163.601 161.835 164.742 161.835C168.133 161.835 169.858 163.616 169.916 167.207V177.543H167.285V167.353C167.285 166.244 167.022 165.426 166.525 164.871C166.028 164.317 165.18 164.054 163.981 164.054C163.017 164.054 162.198 164.346 161.555 164.93C160.912 165.514 160.532 166.302 160.415 167.295V177.543H157.754V167.412C157.754 165.163 156.643 164.054 154.451 164.054C152.726 164.054 151.527 164.784 150.884 166.273V177.543H148.253V162.127H150.738V162.098Z" fill="white"/>
<path d="M180.295 177.806C178.19 177.806 176.494 177.105 175.178 175.733C173.863 174.361 173.22 172.521 173.22 170.215V169.748C173.22 168.229 173.512 166.857 174.097 165.66C174.682 164.463 175.5 163.528 176.553 162.828C177.605 162.156 178.745 161.806 179.973 161.806C181.99 161.806 183.54 162.477 184.651 163.791C185.762 165.105 186.317 167.003 186.317 169.456V170.565H175.851C175.88 172.083 176.348 173.31 177.196 174.244C178.044 175.178 179.125 175.646 180.441 175.646C181.376 175.646 182.166 175.441 182.809 175.062C183.452 174.682 184.037 174.186 184.505 173.543L186.113 174.799C184.826 176.813 182.867 177.806 180.295 177.806ZM179.973 163.966C178.921 163.966 178.014 164.346 177.283 165.134C176.553 165.923 176.114 167.003 175.939 168.404H183.686V168.2C183.598 166.857 183.247 165.835 182.604 165.076C181.932 164.346 181.055 163.966 179.973 163.966Z" fill="white"/>
<path d="M198.362 173.427C198.362 172.726 198.099 172.171 197.544 171.762C197.018 171.353 196.082 171.032 194.737 170.74C193.392 170.448 192.34 170.127 191.551 169.718C190.761 169.31 190.177 168.842 189.797 168.288C189.416 167.733 189.241 167.091 189.241 166.331C189.241 165.076 189.767 163.996 190.849 163.12C191.931 162.244 193.276 161.806 194.942 161.806C196.696 161.806 198.099 162.244 199.21 163.149C200.292 164.054 200.847 165.193 200.847 166.623H198.187C198.187 165.893 197.895 165.28 197.251 164.755C196.638 164.229 195.877 163.966 194.942 163.966C193.977 163.966 193.217 164.171 192.691 164.579C192.135 164.988 191.872 165.543 191.872 166.215C191.872 166.857 192.135 167.324 192.632 167.645C193.129 167.966 194.036 168.288 195.38 168.58C196.696 168.872 197.778 169.222 198.596 169.631C199.415 170.04 200.029 170.536 200.409 171.12C200.789 171.704 200.994 172.405 200.994 173.222C200.994 174.594 200.438 175.704 199.327 176.551C198.216 177.368 196.784 177.806 195.03 177.806C193.802 177.806 192.691 177.602 191.755 177.164C190.82 176.726 190.06 176.113 189.533 175.324C189.007 174.536 188.715 173.689 188.715 172.784H191.346C191.404 173.66 191.755 174.361 192.398 174.886C193.071 175.412 193.948 175.675 195.03 175.675C196.024 175.675 196.842 175.47 197.427 175.062C198.07 174.653 198.362 174.098 198.362 173.427Z" fill="white"/>
<path d="M210.845 177.806C208.741 177.806 207.045 177.105 205.729 175.733C204.414 174.361 203.771 172.521 203.771 170.215V169.748C203.771 168.229 204.063 166.857 204.648 165.66C205.232 164.463 206.051 163.528 207.103 162.828C208.156 162.156 209.296 161.806 210.524 161.806C212.541 161.806 214.091 162.477 215.202 163.791C216.312 165.105 216.868 167.003 216.868 169.456V170.565H206.402C206.431 172.083 206.899 173.31 207.747 174.244C208.594 175.178 209.676 175.646 210.992 175.646C211.927 175.646 212.717 175.441 213.36 175.062C214.003 174.682 214.588 174.186 215.055 173.543L216.663 174.799C215.377 176.813 213.447 177.806 210.845 177.806ZM210.524 163.966C209.471 163.966 208.565 164.346 207.834 165.134C207.103 165.923 206.665 167.003 206.489 168.404H214.237V168.2C214.149 166.857 213.798 165.835 213.155 165.076C212.512 164.346 211.635 163.966 210.524 163.966Z" fill="white"/>
</svg>
