<svg xmlns="http://www.w3.org/2000/svg" viewBox="0 0 351.84 126"><defs><style>.cls-1{fill:#fff;}.cls-2{fill:red;}.cls-3{fill:#00ad2b;}</style></defs><title>Talia logo</title><g id="Layer_2" data-name="Layer 2"><g id="Livello_1" data-name="Livello 1"><path class="cls-1" d="M148.79,37.69V48.12h0a62.2,62.2,0,0,0-6.6-5.42,50.2,50.2,0,0,0-7.41-4.37,43.17,43.17,0,0,0-8-2.91,33.69,33.69,0,0,0-8.34-1.06,44.25,44.25,0,0,0-17.2,3.36,43,43,0,0,0-14.08,9.43,44.25,44.25,0,0,0-9.51,14.53,48.37,48.37,0,0,0-3.48,18.58,50.64,50.64,0,0,0,3.48,19.34A41.86,41.86,0,0,0,87.14,114a40.85,40.85,0,0,0,14.08,8.94,47.84,47.84,0,0,0,17.2,3.08,33.25,33.25,0,0,0,8.3-1,45,45,0,0,0,8-2.88,48.87,48.87,0,0,0,7.41-4.29,70.31,70.31,0,0,0,6.68-5.3v11.9h22.26V37.69ZM138.7,89.05A25.28,25.28,0,0,1,134,96.58a23.52,23.52,0,0,1-7,5.26,19,19,0,0,1-8.54,2,23.57,23.57,0,0,1-8.54-1.54,19.33,19.33,0,0,1-7-4.53,21.23,21.23,0,0,1-4.65-7.4,28,28,0,0,1-1.7-10.08,28,28,0,0,1,1.7-10.08,21.27,21.27,0,0,1,4.65-7.41,19.6,19.6,0,0,1,7-4.53,23.78,23.78,0,0,1,8.54-1.53,19,19,0,0,1,8.54,2A23.35,23.35,0,0,1,134,64a25,25,0,0,1,4.74,7.53,23,23,0,0,1,0,17.56Z"/><path class="cls-1" d="M329.58,37.69V48.12h0A62.08,62.08,0,0,0,323,42.71a50.2,50.2,0,0,0-7.41-4.37,43.17,43.17,0,0,0-8-2.91,33.69,33.69,0,0,0-8.34-1.06A44.21,44.21,0,0,0,282,37.73a43,43,0,0,0-14.08,9.43,44.25,44.25,0,0,0-9.51,14.53,48.37,48.37,0,0,0-3.48,18.58,50.64,50.64,0,0,0,3.48,19.34A41.86,41.86,0,0,0,267.93,114,40.85,40.85,0,0,0,282,122.92a47.8,47.8,0,0,0,17.2,3.08,33.25,33.25,0,0,0,8.3-1,45,45,0,0,0,8-2.88,48.87,48.87,0,0,0,7.41-4.29,70.18,70.18,0,0,0,6.67-5.3l0,0v11.88h22.26V37.69ZM319.49,89.05a25.28,25.28,0,0,1-4.74,7.53,23.52,23.52,0,0,1-7,5.26,19,19,0,0,1-8.54,2,23.53,23.53,0,0,1-8.54-1.54,19.33,19.33,0,0,1-7-4.53,21.23,21.23,0,0,1-4.65-7.4,27.74,27.74,0,0,1-1.7-10.08,27.74,27.74,0,0,1,1.7-10.08,21.27,21.27,0,0,1,4.65-7.41,19.6,19.6,0,0,1,7-4.53,23.74,23.74,0,0,1,8.54-1.53,19,19,0,0,1,8.54,2,23.35,23.35,0,0,1,7,5.26,25,25,0,0,1,4.74,7.53,23,23,0,0,1,0,17.56Z"/><path class="cls-1" d="M49.5,124.89a37.6,37.6,0,0,1-15-3,39.18,39.18,0,0,1-20.67-20.67,37.65,37.65,0,0,1-3-15V60.42H0v-22H10.76V3.8h22V38.42H66.25v22H32.76V86.14A16.51,16.51,0,0,0,37.61,98a17.09,17.09,0,0,0,5.34,3.6,16.26,16.26,0,0,0,6.55,1.34H66.25v22Z"/><path class="cls-1" d="M209,124.89H186.73V3.8H209Z"/><path class="cls-1" d="M246.92,124.89H224.67V38.26h22.25Z"/><path class="cls-1" d="M250.72,14.72a14.13,14.13,0,0,1-1.17,5.74,14.84,14.84,0,0,1-3.2,4.66,15.41,15.41,0,0,1-4.73,3.15,14.89,14.89,0,0,1-11.57,0,15,15,0,0,1-4.69-3.15,15.21,15.21,0,0,1-3.15-4.66,14.45,14.45,0,0,1,0-11.44,14.88,14.88,0,0,1,3.15-4.69,15.19,15.19,0,0,1,4.69-3.16,14.89,14.89,0,0,1,11.57,0,15.62,15.62,0,0,1,4.73,3.16A14.52,14.52,0,0,1,249.55,9,14.25,14.25,0,0,1,250.72,14.72Z"/><path class="cls-2" d="M249.55,9a14.52,14.52,0,0,0-3.2-4.69,15.62,15.62,0,0,0-4.73-3.16l-.24-.1v27.3l.24-.1a15.41,15.41,0,0,0,4.73-3.15,14.84,14.84,0,0,0,3.2-4.66,14.13,14.13,0,0,0,1.17-5.74A14.25,14.25,0,0,0,249.55,9Z"/><path class="cls-3" d="M225.36,4.33A14.88,14.88,0,0,0,222.21,9a14.45,14.45,0,0,0,0,11.44,15.21,15.21,0,0,0,3.15,4.66,14.8,14.8,0,0,0,4.53,3.07V1.25A15,15,0,0,0,225.36,4.33Z"/></g></g></svg>