<svg width="112" height="40" viewBox="0 0 112 40" fill="none" xmlns="http://www.w3.org/2000/svg">
<g clip-path="url(#clip0)">
<path d="M46.9499 11.9668V15.2745L46.9458 15.2806C46.2996 14.6648 45.605 14.0895 44.8641 13.5589C44.1232 13.0282 43.3441 12.5664 42.5267 12.1714C41.7093 11.7764 40.8657 11.4685 39.998 11.2457C39.1303 11.0229 38.2525 10.9115 37.3666 10.9115C35.442 10.9115 33.634 11.268 31.9388 11.9789C30.2437 12.6899 28.7639 13.6885 27.4955 14.9727C26.2272 16.2569 25.2266 17.7962 24.4937 19.5848C23.7609 21.3753 23.3965 23.3401 23.3965 25.4811C23.3965 27.776 23.7629 29.8238 24.4937 31.6225C25.2266 33.4211 26.2251 34.9423 27.4955 36.1839C28.7639 37.4256 30.2457 38.3715 31.9388 39.0237C33.632 39.6739 35.442 40 37.3666 40C38.2525 40 39.1242 39.8886 39.9839 39.6658C40.8436 39.443 41.6831 39.1392 42.5005 38.7543C43.3179 38.3695 44.0971 37.9158 44.8379 37.3932C45.5788 36.8706 46.2815 36.3095 46.9458 35.71L46.9499 35.716V39.4855H53.9742V11.9668H46.9499ZM43.7649 28.2702C43.3984 29.1696 42.9012 29.9656 42.271 30.6603C41.6408 31.3531 40.904 31.9101 40.0624 32.3314C39.2189 32.7507 38.3209 32.9613 37.3687 32.9613C36.4144 32.9613 35.5164 32.7993 34.6749 32.4732C33.8313 32.1471 33.1005 31.6691 32.4784 31.0351C31.8563 30.4011 31.3671 29.6172 31.0107 28.6834C30.6524 27.7497 30.4752 26.6822 30.4752 25.4831C30.4752 24.284 30.6544 23.2186 31.0107 22.2848C31.3691 21.351 31.8583 20.5672 32.4784 19.9332C33.0985 19.2992 33.8313 18.8191 34.6749 18.4951C35.5185 18.1689 36.4164 18.0069 37.3687 18.0069C38.323 18.0069 39.2209 18.2176 40.0624 18.6368C40.906 19.0561 41.6408 19.6131 42.271 20.3079C42.9012 21.0006 43.3984 21.7987 43.7649 22.698C44.1313 23.5973 44.3145 24.5271 44.3145 25.4851C44.3145 26.4412 44.1313 27.3709 43.7649 28.2702Z" fill="white"/>
<path d="M103.996 11.9668V15.2745L103.992 15.2806C103.345 14.6648 102.651 14.0895 101.91 13.5589C101.169 13.0282 100.39 12.5664 99.5726 12.1714C98.7552 11.7764 97.9116 11.4685 97.0439 11.2457C96.1762 11.0229 95.2984 10.9115 94.4125 10.9115C92.4879 10.9115 90.6799 11.268 88.9847 11.9789C87.2896 12.6899 85.8098 13.6885 84.5414 14.9727C83.2731 16.2569 82.2725 17.7962 81.5396 19.5848C80.8068 21.3753 80.4424 23.3401 80.4424 25.4811C80.4424 27.776 80.8088 29.8238 81.5396 31.6225C82.2725 33.4211 83.271 34.9423 84.5414 36.1839C85.8098 37.4256 87.2916 38.3715 88.9847 39.0237C90.6779 39.6739 92.4879 40 94.4125 40C95.2984 40 96.1701 39.8886 97.0298 39.6658C97.8895 39.443 98.729 39.1392 99.5464 38.7543C100.364 38.3695 101.143 37.9158 101.884 37.3932C102.625 36.8706 103.327 36.3095 103.992 35.71L103.996 35.716V39.4855H111.02V11.9668H103.996ZM100.811 28.2702C100.444 29.1696 99.9471 29.9656 99.3169 30.6603C98.6867 31.3531 97.9499 31.9101 97.1083 32.3314C96.2648 32.7507 95.3668 32.9613 94.4146 32.9613C93.4603 32.9613 92.5623 32.7993 91.7208 32.4732C90.8772 32.1471 90.1464 31.6691 89.5243 31.0351C88.9022 30.4011 88.413 29.6172 88.0566 28.6834C87.6983 27.7497 87.5211 26.6822 87.5211 25.4831C87.5211 24.284 87.7003 23.2186 88.0566 22.2848C88.415 21.351 88.9042 20.5672 89.5243 19.9332C90.1444 19.2992 90.8772 18.8191 91.7208 18.4951C92.5644 18.1689 93.4623 18.0069 94.4146 18.0069C95.3689 18.0069 96.2668 18.2176 97.1083 18.6368C97.9519 19.0561 98.6867 19.6131 99.3169 20.3079C99.9471 21.0006 100.444 21.7987 100.811 22.698C101.177 23.5973 101.36 24.5271 101.36 25.4851C101.36 26.4412 101.177 27.3709 100.811 28.2702Z" fill="white"/>
<path d="M15.6211 39.6476C13.9359 39.6476 12.3535 39.3276 10.8737 38.6855C9.39397 38.0434 8.09541 37.1623 6.98206 36.0402C5.8667 34.9201 4.99093 33.6136 4.35272 32.1248C3.71451 30.6361 3.39641 29.044 3.39641 27.3487V19.1818H0V12.1978H3.39439V1.20728H10.3362V12.1978H20.9019V19.1818H10.3362V27.3466C10.3362 28.0839 10.4731 28.7726 10.7449 29.4147C11.0167 30.0568 11.3911 30.6178 11.8683 31.0959C12.3434 31.5759 12.9051 31.9567 13.5534 32.2383C14.1997 32.5198 14.8882 32.6616 15.6211 32.6616H20.9039V39.6456H15.6211V39.6476Z" fill="white"/>
<path d="M65.9392 39.6476H58.9209V1.20728H65.9392V39.6476Z" fill="white"/>
<path d="M79.1119 4.67288C79.1119 5.32307 78.989 5.93073 78.7414 6.49585C78.4938 7.06097 78.1576 7.55317 77.7328 7.97245C77.308 8.39174 76.8087 8.72595 76.2389 8.97306C75.6692 9.2222 75.0611 9.34576 74.4149 9.34576C73.7686 9.34576 73.1606 9.2222 72.5909 8.97306C72.0211 8.72595 71.5278 8.39174 71.1111 7.97245C70.6943 7.55317 70.3622 7.06097 70.1165 6.49585C69.8689 5.93073 69.7461 5.32307 69.7461 4.67288C69.7461 4.03889 69.8689 3.43731 70.1165 2.86206C70.3622 2.28884 70.6943 1.79259 71.1111 1.3733C71.5278 0.954021 72.0211 0.61981 72.5909 0.372696C73.1606 0.125582 73.7686 0 74.4149 0C75.0611 0 75.6692 0.123557 76.2389 0.372696C76.8087 0.621835 77.306 0.954021 77.7328 1.3733C78.1576 1.79259 78.4938 2.28884 78.7414 2.86206C78.989 3.43731 79.1119 4.04092 79.1119 4.67288ZM77.914 39.6476H70.8957V12.145H77.914V39.6476Z" fill="white"/>
</g>
<defs>
<clipPath id="clip0">
<rect width="111.02" height="40" fill="white"/>
</clipPath>
</defs>
</svg>
